<?xml version="1.0" encoding="UTF-8"?>
<svg id="Layer_1" data-name="Layer 1" xmlns="http://www.w3.org/2000/svg" viewBox="0 0 979.09 1090">
  <defs>
    <style>
      .cls-1 {
        fill: #5835e4;
      }

      .cls-2 {
        fill: #7ac893;
      }

      .cls-3 {
        fill: #fff;
      }
    </style>
  </defs>
  <polygon class="cls-3" points="955.91 295.18 953.92 813.74 511.62 1070.99 67.7 814.69 67.7 294.57 67.76 294.53 511.74 38.2 955.91 295.18"/>
  <g>
    <polygon class="cls-1" points="883.19 312.57 808.91 269.68 511.81 441.22 437.53 398.34 734.63 226.8 660.36 183.92 363.25 355.46 288.98 312.58 586.07 141.03 511.8 98.15 140.42 312.57 511.81 526.99 883.19 312.57"/>
    <polygon class="cls-2" points="489.28 909.08 192.18 737.55 192.18 651.77 489.28 823.31 489.28 737.55 192.18 566.01 192.18 480.25 489.28 651.77 489.28 566.01 117.91 351.59 117.91 780.43 489.28 994.85 489.28 909.08"/>
    <polygon points="905.72 434.5 905.72 348.72 534.33 563.14 534.33 991.99 608.6 949.1 608.6 777.56 905.72 606.03 905.72 520.26 608.6 691.8 608.6 606.03 905.72 434.5"/>
  </g>
</svg>