<?xml version="1.0" encoding="UTF-8"?>
<svg id="Layer_1" data-name="Layer 1" xmlns="http://www.w3.org/2000/svg" viewBox="0 0 502.39 250.84">
  <defs>
    <style>
      .cls-1 {
        fill: none;
      }

      .cls-2 {
        isolation: isolate;
      }

      .cls-3 {
        fill: #fff;
      }

      .cls-4 {
        fill: #003c65;
      }
    </style>
  </defs>
  <rect class="cls-3" x="291.33" width="211.05" height="250.84"/>
  <rect class="cls-1" width="502.39" height="250.84"/>
  <path class="cls-4" d="M433.75,104.22c0,16-7.2,35.38-36.79,35.38s-36.8-19.39-36.8-35.38,7.2-35.38,36.8-35.38,36.79,19.4,36.79,35.38M394.57,133.7c.77,0,1.57.05,2.39.05,26.34,0,32.74-17.26,32.74-31.49s-5.78-29.78-29-31.36l-1.4,3.85h-2.38c-26.35,0-32.75,17.26-32.75,31.49s5.78,29.78,29,31.36l1.4-3.9Z"/>
  <path class="cls-4" d="M424.92,104.22c0,11.83-5.47,26.19-28,26.19s-28-14.36-28-26.19,5.54-26.22,28.08-26.22,28,14.35,28,26.18M396,83.91c-17.85.41-22.23,12.38-22.23,22.28s4.46,22.08,22.7,22.29l1.43-3.94c17.85-.41,22.24-12.38,22.24-22.28s-4.46-22.08-22.7-22.26l-1.44,3.91Z"/>
  <path class="cls-4" d="M399.32,120.63l2.32-6.36c1.88-5.17.83-8.57-4.68-10s-6.57-4.88-4.69-10l2.32-6.36c.75-.06,1.54-.09,2.37-.09,14.5,0,18,9,18,16.49,0,7-3.14,15.47-15.66,16.41"/>
  <path class="cls-4" d="M352.5,166.43c-3.86-1.33-6.16-1.84-8.42-1.84s-4.11.87-4.11,1.9c0,3.12,13.4,2.44,13.4,9.65,0,4-3.95,5.85-9.88,5.85-3.31.06-6.58-.62-9.59-2v-4.45c3.82,2,6.16,2.67,9.09,2.67,2.53,0,4-1.18,4-2.39,0-3.39-13.32-2.15-13.32-9.56,0-3.57,3.63-5.45,9.79-5.45,3.07.02,6.11.56,9,1.6l.04,4.02Z"/>
  <rect class="cls-4" x="358.32" y="161.08" width="5.6" height="20.64"/>
  <polygon class="cls-4" points="375.5 181.72 369.69 181.72 369.69 161.08 375.02 161.08 387.56 173.97 387.56 161.08 393.16 161.08 393.16 181.72 388.48 181.72 375.5 168.15 375.5 181.72"/>
  <polygon class="cls-4" points="438.59 181.72 420.78 181.72 420.78 161.08 438.61 161.08 438.61 164.66 426.31 164.66 426.31 169.26 437.39 169.26 437.39 172.9 426.31 172.9 426.31 178.07 438.59 178.07 438.59 181.72"/>
  <polygon class="cls-4" points="460.21 164.65 447.76 164.65 447.76 169.53 458.9 169.53 458.9 173.18 447.76 173.18 447.76 181.72 442.23 181.72 442.23 161.08 460.21 161.08 460.21 164.65"/>
  <polygon class="cls-4" points="409.76 181.72 409.76 164.72 417.94 164.72 417.94 161.08 395.95 161.08 395.95 164.72 404.19 164.72 404.19 181.72 409.76 181.72"/>
  <rect class="cls-3" x="2.83" y="246.35" width="249.78" height="4.49"/>
  <rect class="cls-3" x="2.83" width="249.78" height="4.49"/>
  <g class="cls-2">
    <path class="cls-3" d="M32.58,81.79c0,2.18-.36,4.14-1.08,5.9s-1.75,3.25-3.08,4.48c-1.34,1.24-2.98,2.19-4.92,2.86-1.94.67-4.26,1.01-6.96,1.01h-4.95v15.7c0,.18-.05.34-.15.47-.1.13-.26.24-.47.32-.21.08-.51.15-.88.2-.37.06-.84.08-1.4.08s-1.03-.03-1.4-.08c-.37-.06-.67-.12-.89-.2-.22-.08-.38-.19-.47-.32-.09-.13-.13-.29-.13-.47v-40.23c0-.9.24-1.54.71-1.92s1-.57,1.58-.57h9.33c.94,0,1.85.04,2.71.12.86.08,1.89.25,3.07.5,1.18.26,2.38.74,3.61,1.45,1.22.71,2.26,1.58,3.12,2.61.85,1.03,1.51,2.23,1.97,3.59.46,1.36.69,2.86.69,4.5ZM26.48,82.26c0-1.77-.33-3.26-.99-4.45-.66-1.19-1.48-2.08-2.46-2.66-.98-.58-1.99-.95-3.03-1.11-1.04-.16-2.06-.24-3.05-.24h-5.36v17.49h5.22c1.75,0,3.21-.22,4.36-.67,1.16-.45,2.13-1.07,2.91-1.87s1.38-1.75,1.79-2.86c.4-1.11.61-2.32.61-3.62Z"/>
    <path class="cls-3" d="M67.62,96.28c0,2.47-.33,4.75-.98,6.82-.65,2.08-1.62,3.87-2.92,5.37-1.29,1.51-2.91,2.68-4.85,3.52-1.94.84-4.19,1.26-6.75,1.26s-4.67-.37-6.52-1.11c-1.85-.74-3.4-1.82-4.63-3.23-1.24-1.42-2.16-3.13-2.76-5.16s-.91-4.31-.91-6.87.32-4.74.96-6.82c.64-2.08,1.61-3.87,2.9-5.37,1.29-1.5,2.9-2.67,4.83-3.5s4.19-1.25,6.77-1.25,4.67.37,6.52,1.11c1.85.74,3.4,1.82,4.63,3.23,1.24,1.41,2.16,3.13,2.78,5.15.62,2.02.93,4.3.93,6.84ZM61.86,96.65c0-1.64-.15-3.19-.46-4.65-.31-1.46-.81-2.74-1.51-3.84-.7-1.1-1.65-1.97-2.86-2.61-1.2-.64-2.7-.96-4.49-.96-1.65,0-3.08.29-4.27.88s-2.17,1.41-2.94,2.48-1.34,2.33-1.72,3.79-.56,3.05-.56,4.78.15,3.22.46,4.68c.31,1.46.82,2.74,1.53,3.82.71,1.09,1.67,1.95,2.87,2.59,1.2.64,2.7.96,4.49.96,1.63,0,3.05-.29,4.25-.88s2.19-1.4,2.96-2.46c.77-1.05,1.34-2.31,1.7-3.77.36-1.46.54-3.07.54-4.82Z"/>
    <path class="cls-3" d="M117.95,81.39c0,.16-.02.35-.07.57s-.12.5-.24.84l-8.93,28.81c-.07.25-.17.45-.32.61-.15.16-.35.28-.61.37-.26.09-.61.15-1.06.18-.45.03-1.01.05-1.68.05s-1.28-.02-1.75-.07-.85-.11-1.13-.2c-.28-.09-.49-.21-.62-.37s-.24-.35-.3-.57l-6.37-22-.07-.3-.07.3-5.9,22c-.07.25-.17.45-.32.61-.15.16-.37.28-.66.37-.29.09-.67.15-1.13.18-.46.03-1.03.05-1.7.05s-1.26-.02-1.7-.07c-.44-.04-.8-.11-1.08-.2-.28-.09-.49-.21-.62-.37s-.24-.35-.3-.57l-8.86-28.81c-.11-.34-.19-.62-.24-.84-.05-.22-.07-.42-.07-.57,0-.2.04-.36.13-.49.09-.12.24-.22.45-.3.21-.08.5-.13.86-.15.36-.02.8-.03,1.31-.03.63,0,1.13.02,1.52.05.38.03.67.09.88.17.2.08.35.19.44.34.09.15.17.32.24.52l7.31,25,.07.3.07-.3,6.7-25c.04-.2.12-.38.22-.52.1-.15.25-.26.46-.34.2-.08.48-.13.83-.17.35-.03.8-.05,1.37-.05s.98.02,1.33.05c.35.03.62.09.83.17.2.08.35.19.44.32s.16.29.2.47l7.24,25.07.07.3.03-.3,7.21-25c.04-.2.12-.38.22-.52.1-.15.26-.26.47-.34.21-.08.51-.13.88-.17.37-.03.85-.05,1.43-.05.54,0,.97.01,1.3.03.33.02.58.08.77.17.19.09.33.19.4.3.08.11.12.27.12.47Z"/>
    <path class="cls-3" d="M150.13,95.3c0,.88-.22,1.5-.66,1.87-.44.37-.94.56-1.51.56h-19.97c0,1.68.17,3.2.51,4.55s.9,2.5,1.69,3.47c.79.97,1.82,1.71,3.08,2.22s2.81.77,4.64.77c1.44,0,2.73-.12,3.86-.35,1.13-.24,2.1-.5,2.93-.79.82-.29,1.5-.56,2.03-.79.53-.24.93-.35,1.2-.35.16,0,.3.04.42.12.12.08.22.2.29.35.07.16.12.38.15.66.03.28.05.62.05,1.03,0,.29-.01.54-.03.76s-.05.4-.08.57c-.03.17-.09.32-.17.46-.08.13-.18.26-.3.39-.12.12-.49.33-1.09.61s-1.39.56-2.36.83c-.97.27-2.08.51-3.35.72-1.27.21-2.62.32-4.06.32-2.49,0-4.68-.35-6.55-1.04-1.88-.7-3.45-1.73-4.73-3.1s-2.25-3.09-2.9-5.15-.98-4.47-.98-7.21.34-4.95,1.01-7.02c.67-2.08,1.64-3.84,2.91-5.29,1.27-1.45,2.8-2.56,4.6-3.34,1.8-.77,3.81-1.16,6.03-1.16,2.38,0,4.41.38,6.08,1.15,1.67.76,3.05,1.79,4.13,3.08s1.87,2.81,2.38,4.55c.51,1.74.76,3.6.76,5.58v1.01ZM144.54,93.65c.07-2.92-.58-5.21-1.95-6.87-1.37-1.66-3.4-2.49-6.08-2.49-1.38,0-2.59.26-3.63.77-1.04.52-1.91,1.2-2.61,2.06-.7.85-1.24,1.85-1.63,2.98-.38,1.13-.6,2.32-.64,3.55h16.54Z"/>
    <path class="cls-3" d="M176.31,83.44c0,.49-.01.91-.03,1.25-.02.34-.07.6-.13.79-.07.19-.15.34-.25.44s-.24.15-.42.15-.4-.05-.66-.15c-.26-.1-.55-.2-.88-.3-.33-.1-.69-.2-1.09-.29s-.84-.13-1.31-.13c-.56,0-1.11.11-1.65.34s-1.11.6-1.7,1.11c-.6.52-1.22,1.2-1.87,2.06-.65.85-1.37,1.9-2.16,3.13v19.95c0,.18-.05.33-.13.45-.09.12-.24.23-.44.32s-.48.16-.84.2c-.36.04-.82.07-1.38.07s-.99-.02-1.35-.07-.65-.11-.86-.2c-.21-.09-.36-.2-.44-.32-.08-.12-.12-.27-.12-.45v-30.32c0-.18.03-.33.1-.46s.2-.24.4-.34c.2-.1.46-.17.77-.2.31-.03.73-.05,1.25-.05s.9.02,1.23.05c.33.03.58.1.76.2.18.1.31.21.39.34.08.12.12.28.12.46v4.41c.83-1.21,1.61-2.2,2.34-2.96.73-.76,1.42-1.36,2.07-1.8.65-.44,1.3-.74,1.94-.91.64-.17,1.29-.25,1.94-.25.29,0,.62.02.99.05.37.03.76.1,1.16.18.4.09.77.19,1.09.3.33.11.56.22.69.34s.22.22.27.32c.04.1.08.23.12.39.03.16.06.39.07.69.01.3.02.71.02,1.23Z"/>
    <path class="cls-3" d="M207.61,95.3c0,.88-.22,1.5-.66,1.87-.44.37-.94.56-1.51.56h-19.97c0,1.68.17,3.2.51,4.55s.9,2.5,1.69,3.47c.79.97,1.82,1.71,3.08,2.22s2.81.77,4.64.77c1.44,0,2.73-.12,3.86-.35,1.13-.24,2.1-.5,2.93-.79.82-.29,1.5-.56,2.03-.79.53-.24.93-.35,1.2-.35.16,0,.3.04.42.12.12.08.22.2.29.35.07.16.12.38.15.66.03.28.05.62.05,1.03,0,.29-.01.54-.03.76s-.05.4-.08.57c-.03.17-.09.32-.17.46-.08.13-.18.26-.3.39-.12.12-.49.33-1.09.61s-1.39.56-2.36.83c-.97.27-2.08.51-3.35.72-1.27.21-2.62.32-4.06.32-2.49,0-4.68-.35-6.55-1.04-1.88-.7-3.45-1.73-4.73-3.1s-2.25-3.09-2.9-5.15-.98-4.47-.98-7.21.34-4.95,1.01-7.02c.67-2.08,1.64-3.84,2.91-5.29,1.27-1.45,2.8-2.56,4.6-3.34,1.8-.77,3.81-1.16,6.03-1.16,2.38,0,4.41.38,6.08,1.15,1.67.76,3.05,1.79,4.13,3.08s1.87,2.81,2.38,4.55c.51,1.74.76,3.6.76,5.58v1.01ZM202.01,93.65c.07-2.92-.58-5.21-1.95-6.87-1.37-1.66-3.4-2.49-6.08-2.49-1.38,0-2.59.26-3.63.77-1.04.52-1.91,1.2-2.61,2.06-.7.85-1.24,1.85-1.63,2.98-.38,1.13-.6,2.32-.64,3.55h16.54Z"/>
    <path class="cls-3" d="M242.04,111.78c0,.18-.04.34-.12.47-.08.13-.21.24-.4.32-.19.08-.44.14-.76.19-.32.04-.7.07-1.15.07-.47,0-.87-.02-1.18-.07s-.57-.11-.77-.19c-.2-.08-.35-.19-.44-.32s-.13-.29-.13-.47v-4.01c-1.59,1.73-3.25,3.08-4.97,4.04-1.72.97-3.6,1.45-5.64,1.45-2.22,0-4.12-.43-5.69-1.3s-2.85-2.03-3.82-3.5c-.98-1.47-1.69-3.2-2.14-5.19-.45-1.99-.67-4.08-.67-6.28,0-2.61.28-4.96.84-7.06.56-2.1,1.39-3.89,2.49-5.37s2.46-2.62,4.09-3.42c1.63-.8,3.51-1.2,5.64-1.2,1.77,0,3.4.39,4.87,1.16,1.47.78,2.93,1.92,4.36,3.42v-17.62c0-.16.04-.31.12-.46.08-.15.23-.26.45-.34s.51-.15.86-.2c.35-.06.79-.08,1.33-.08s1.02.03,1.38.08.64.12.84.2.35.19.46.34c.1.15.15.3.15.46v44.88ZM236.45,90.45c-1.5-1.86-2.96-3.29-4.36-4.26-1.4-.98-2.87-1.47-4.4-1.47-1.42,0-2.62.34-3.61,1.01s-1.79,1.56-2.41,2.66c-.62,1.1-1.07,2.35-1.35,3.74-.28,1.39-.42,2.81-.42,4.25,0,1.53.12,3.02.35,4.48.24,1.46.64,2.76,1.23,3.89.58,1.13,1.36,2.04,2.32,2.73s2.18,1.03,3.64,1.03c.74,0,1.45-.1,2.14-.3.68-.2,1.39-.54,2.11-1.01.72-.47,1.47-1.08,2.26-1.84.79-.75,1.62-1.68,2.49-2.78v-12.13Z"/>
  </g>
  <g class="cls-2">
    <path class="cls-3" d="M33.05,165.35c0,2.63-.29,4.99-.86,7.09-.57,2.1-1.42,3.89-2.53,5.37-1.11,1.48-2.48,2.62-4.09,3.4s-3.47,1.18-5.56,1.18c-.97,0-1.86-.1-2.68-.29s-1.62-.5-2.41-.93c-.79-.43-1.57-.97-2.36-1.62-.79-.65-1.62-1.44-2.49-2.36v3.71c0,.18-.05.34-.13.47-.09.13-.24.24-.44.32-.2.08-.46.14-.76.19-.3.04-.69.07-1.16.07s-.83-.02-1.15-.07c-.31-.04-.57-.11-.77-.19-.2-.08-.34-.19-.4-.32s-.1-.29-.1-.47v-45.01c0-.18.04-.34.12-.47s.22-.25.44-.34c.21-.09.5-.16.86-.2.36-.04.81-.07,1.35-.07s1.02.02,1.38.07c.36.05.64.11.84.2s.35.2.44.34c.09.13.13.29.13.47v18.16c.9-.92,1.77-1.7,2.61-2.33.84-.63,1.67-1.14,2.48-1.53s1.62-.68,2.43-.86,1.66-.27,2.56-.27c2.2,0,4.08.44,5.64,1.31,1.56.88,2.83,2.05,3.81,3.52.98,1.47,1.69,3.2,2.14,5.17.45,1.98.67,4.07.67,6.27ZM27.29,165.99c0-1.55-.12-3.05-.36-4.51-.24-1.46-.65-2.75-1.24-3.87-.59-1.12-1.37-2.03-2.34-2.71-.97-.68-2.18-1.03-3.63-1.03-.72,0-1.44.1-2.14.3-.7.2-1.41.54-2.14,1.01-.72.47-1.48,1.08-2.25,1.82-.78.74-1.61,1.67-2.49,2.8v12.1c1.54,1.86,3.01,3.28,4.41,4.26,1.4.98,2.86,1.46,4.37,1.46,1.4,0,2.6-.34,3.59-1.01.99-.67,1.8-1.57,2.42-2.68.62-1.11,1.07-2.36,1.36-3.74.28-1.38.42-2.78.42-4.19Z"/>
    <path class="cls-3" d="M54.88,181.76l-4.04,11.15c-.13.36-.48.63-1.03.83-.55.19-1.39.29-2.51.29-.58,0-1.06-.03-1.42-.08-.36-.06-.63-.15-.83-.29-.19-.13-.3-.31-.32-.54-.02-.22.03-.49.17-.81l4.18-10.54c-.2-.09-.39-.24-.57-.44-.18-.2-.3-.42-.37-.64l-10.81-28.97c-.18-.47-.27-.84-.27-1.11s.09-.48.27-.64c.18-.16.47-.26.88-.32.4-.06.94-.08,1.62-.08s1.2.02,1.58.05c.38.03.69.1.91.19.22.09.39.22.49.39.1.17.21.4.32.69l8.66,24.32h.1l8.36-24.46c.13-.43.3-.7.49-.83.19-.12.48-.21.86-.27.38-.06.93-.08,1.65-.08.63,0,1.15.03,1.55.08.4.06.7.16.89.32.19.16.29.37.29.64s-.07.61-.2,1.01l-10.88,30.15Z"/>
  </g>
</svg>